<?xml version="1.0" encoding="UTF-8"?>
<!DOCTYPE svg PUBLIC "-//W3C//DTD SVG 1.1//EN" "http://www.w3.org/Graphics/SVG/1.1/DTD/svg11.dtd">
<!-- Creator: CorelDRAW X7 -->
<svg xmlns="http://www.w3.org/2000/svg" xml:space="preserve" width="25.4mm" height="25.4mm" version="1.1" style="shape-rendering:geometricPrecision; text-rendering:geometricPrecision; image-rendering:optimizeQuality; fill-rule:evenodd; clip-rule:evenodd"
viewBox="0 0 307283 307283"
 xmlns:xlink="http://www.w3.org/1999/xlink">
 <defs>
  <style type="text/css">
   <![CDATA[
    .fil0 {fill:black}
   ]]>
  </style>
 </defs>
 <g id="Слой_x0020_1">
  <metadata id="CorelCorpID_0Corel-Layer"/>
  <path class="fil0" d="M307283 51213c0,-26907 -24289,-51213 -51214,-51213l-204856 0c-26924,0 -51213,24306 -51213,51213l0 204856c0,26908 24289,51214 51213,51214l102428 0 0 -116080 -37561 0 0 -51214 37561 0 0 -19956c0,-34412 25842,-65401 57616,-65401l41394 0 0 51214 -41394 0c-4533,0 -9820,5502 -9820,13738l0 20405 51214 0 0 51214 -51214 0 0 116080 54632 0c26925,0 51214,-24306 51214,-51214l0 -204856z"/>
 </g>
</svg>
