<?xml version="1.0" encoding="UTF-8"?>
<!DOCTYPE svg PUBLIC "-//W3C//DTD SVG 1.1//EN" "http://www.w3.org/Graphics/SVG/1.1/DTD/svg11.dtd">
<!-- Creator: CorelDRAW X7 -->
<svg xmlns="http://www.w3.org/2000/svg" xml:space="preserve" width="25.4mm" height="25.4mm" version="1.1" style="shape-rendering:geometricPrecision; text-rendering:geometricPrecision; image-rendering:optimizeQuality; fill-rule:evenodd; clip-rule:evenodd"
viewBox="0 0 307283 307283"
 xmlns:xlink="http://www.w3.org/1999/xlink">
 <defs>
  <style type="text/css">
   <![CDATA[
    .fil0 {fill:black}
   ]]>
  </style>
 </defs>
 <g id="Слой_x0020_1">
  <metadata id="CorelCorpID_0Corel-Layer"/>
  <path class="fil0" d="M284595 0l-261890 0c-12534,0 -22705,9855 -22705,22022l0 263239c0,12155 10171,22022 22705,22022l261890 0c12534,0 22688,-9867 22688,-22022l0 -263239c0,-12167 -10154,-22022 -22688,-22022zm-191437 257221l-46429 0 0 -138738 46429 0 0 138738zm-23204 -157695l-321 0c-15568,0 -25653,-10654 -25653,-23973 0,-13602 10384,-23955 26256,-23955 15889,0 25658,10353 25957,23955 0,13336 -10068,23973 -26239,23973zm190566 157695l-46412 0 0 -74238c0,-18656 -6734,-31378 -23507,-31378 -12855,0 -20473,8587 -23824,16876 -1233,2966 -1531,7101 -1531,11232l0 77508 -46413 0c0,0 614,-125734 0,-138738l46413 0 0 19671c6167,-9453 17169,-22940 41829,-22940 30541,0 53445,19824 53445,62451l0 79556zm-95577 -118633c85,-135 183,-285 303,-434l0 434 -303 0z"/>
 </g>
</svg>
